<svg width="300" height="74" viewBox="0 0 300 74" fill="none" xmlns="http://www.w3.org/2000/svg">
<path d="M107.131 53.65V22.57H120.162C121.988 22.57 123.622 23.014 125.065 23.902C126.537 24.7604 127.701 25.9444 128.555 27.454C129.438 28.934 129.88 30.6064 129.88 32.4712C129.88 34.3952 129.438 36.1268 128.555 37.666C127.701 39.1756 126.537 40.3892 125.065 41.3068C123.622 42.1948 121.988 42.6388 120.162 42.6388H113.492V53.65H107.131ZM113.448 36.8224H119.499C120.589 36.8224 121.502 36.4228 122.238 35.6236C123.004 34.7948 123.387 33.7736 123.387 32.56C123.387 31.3464 123.004 30.3548 122.238 29.5852C121.502 28.786 120.589 28.3864 119.499 28.3864H113.448V36.8224Z" fill="#494D4B"/>
<path d="M145.323 54.094C142.938 54.094 140.818 53.576 138.963 52.54C137.107 51.4744 135.65 50.024 134.59 48.1888C133.529 46.3536 132.999 44.252 132.999 41.884C132.999 39.5456 133.529 37.4588 134.59 35.6236C135.65 33.7884 137.107 32.3528 138.963 31.3168C140.818 30.2512 142.938 29.7184 145.323 29.7184C147.65 29.7184 149.74 30.2512 151.596 31.3168C153.451 32.3528 154.909 33.7884 155.969 35.6236C157.029 37.4588 157.559 39.5456 157.559 41.884C157.559 44.252 157.029 46.3536 155.969 48.1888C154.909 50.024 153.451 51.4744 151.596 52.54C149.74 53.576 147.65 54.094 145.323 54.094ZM145.323 48.8104C146.501 48.8104 147.561 48.5144 148.504 47.9224C149.446 47.3008 150.167 46.472 150.668 45.436C151.198 44.4 151.463 43.216 151.463 41.884C151.463 40.552 151.198 39.368 150.668 38.332C150.167 37.296 149.446 36.482 148.504 35.89C147.561 35.298 146.501 35.002 145.323 35.002C144.116 35.002 143.041 35.298 142.099 35.89C141.156 36.482 140.42 37.296 139.89 38.332C139.36 39.368 139.095 40.552 139.095 41.884C139.095 43.216 139.36 44.4 139.89 45.436C140.42 46.472 141.156 47.3008 142.099 47.9224C143.041 48.5144 144.116 48.8104 145.323 48.8104Z" fill="#494D4B"/>
<path d="M171.556 54.094C169.495 54.094 167.654 53.576 166.035 52.54C164.415 51.4744 163.134 50.024 162.192 48.1888C161.279 46.3536 160.822 44.2668 160.822 41.9284C160.822 39.5604 161.279 37.4588 162.192 35.6236C163.134 33.7884 164.415 32.3528 166.035 31.3168C167.654 30.2512 169.495 29.7184 171.556 29.7184C172.97 29.7184 174.31 29.9996 175.576 30.562C176.872 31.1244 177.917 31.8496 178.712 32.7376V20.794H184.764V53.65H179.021L178.933 50.8528C178.167 51.7704 177.122 52.54 175.797 53.1616C174.472 53.7832 173.058 54.094 171.556 54.094ZM172.881 49.0324C174.678 49.0324 176.135 48.3812 177.254 47.0788C178.373 45.7468 178.933 44.03 178.933 41.9284C178.933 39.7972 178.373 38.0804 177.254 36.778C176.135 35.446 174.678 34.78 172.881 34.78C171.085 34.78 169.627 35.446 168.508 36.778C167.389 38.0804 166.83 39.7972 166.83 41.9284C166.83 44.03 167.389 45.7468 168.508 47.0788C169.627 48.3812 171.085 49.0324 172.881 49.0324Z" fill="#494D4B"/>
<path d="M200.996 54.094C198.787 54.094 196.8 53.5612 195.033 52.4956C193.295 51.43 191.911 49.9796 190.881 48.1444C189.879 46.3092 189.379 44.2224 189.379 41.884C189.379 39.5752 189.879 37.5032 190.881 35.668C191.911 33.8328 193.295 32.3824 195.033 31.3168C196.8 30.2512 198.787 29.7184 200.996 29.7184C203.087 29.7184 204.986 30.1032 206.694 30.8728C208.432 31.6424 209.786 32.7228 210.758 34.114L207.445 38.11C206.827 37.2516 205.973 36.5264 204.883 35.9344C203.794 35.3128 202.689 35.002 201.57 35.002C200.333 35.002 199.229 35.3128 198.257 35.9344C197.315 36.5264 196.564 37.3404 196.005 38.3764C195.474 39.4124 195.209 40.5816 195.209 41.884C195.209 43.1864 195.489 44.3556 196.049 45.3916C196.608 46.4276 197.374 47.2564 198.346 47.878C199.317 48.47 200.407 48.766 201.614 48.766C202.763 48.766 203.823 48.5144 204.795 48.0112C205.767 47.4784 206.65 46.7384 207.445 45.7912L210.758 49.7872C209.757 51.0896 208.373 52.1404 206.606 52.9396C204.839 53.7092 202.969 54.094 200.996 54.094Z" fill="#494D4B"/>
<path d="M223.568 54.094C221.625 54.094 219.873 53.5612 218.312 52.4956C216.751 51.43 215.5 49.9796 214.557 48.1444C213.645 46.3092 213.188 44.2224 213.188 41.884C213.188 39.4864 213.645 37.3848 214.557 35.5792C215.5 33.744 216.766 32.3084 218.356 31.2724C219.976 30.2364 221.802 29.7184 223.833 29.7184C225.483 29.7184 226.925 30.0588 228.162 30.7396C229.399 31.3908 230.386 32.2492 231.122 33.3148V30.2068H237.129V53.65H231.078V50.4976C230.253 51.5336 229.178 52.392 227.853 53.0728C226.557 53.7536 225.129 54.094 223.568 54.094ZM225.203 48.8104C226.999 48.8104 228.457 48.174 229.576 46.9012C230.695 45.6284 231.254 43.956 231.254 41.884C231.254 39.812 230.695 38.1396 229.576 36.8668C228.457 35.594 226.999 34.9576 225.203 34.9576C223.436 34.9576 221.993 35.594 220.874 36.8668C219.784 38.1396 219.24 39.812 219.24 41.884C219.24 43.956 219.784 45.6284 220.874 46.9012C221.993 48.174 223.436 48.8104 225.203 48.8104Z" fill="#494D4B"/>
<path d="M251.283 54.094C249.134 54.094 247.22 53.7388 245.541 53.0284C243.863 52.318 242.508 51.3116 241.477 50.0092L245.276 46.768C246.16 47.7448 247.161 48.4552 248.28 48.8992C249.399 49.3136 250.533 49.5208 251.681 49.5208C252.594 49.5208 253.33 49.3136 253.89 48.8992C254.449 48.4848 254.729 47.9076 254.729 47.1676C254.729 46.5164 254.464 45.9984 253.934 45.6136C253.404 45.2584 252.137 44.8144 250.135 44.2816C247.161 43.512 245.055 42.4612 243.818 41.1292C242.729 39.9452 242.184 38.48 242.184 36.7336C242.184 35.3424 242.596 34.1288 243.421 33.0928C244.245 32.0272 245.335 31.1984 246.69 30.6064C248.044 30.0144 249.517 29.7184 251.107 29.7184C252.933 29.7184 254.655 30.044 256.275 30.6952C257.895 31.3464 259.249 32.2344 260.339 33.3592L257.07 36.9556C256.245 36.186 255.288 35.5496 254.199 35.0464C253.139 34.5136 252.152 34.2472 251.239 34.2472C249.119 34.2472 248.059 34.9872 248.059 36.4672C248.088 37.1776 248.412 37.74 249.031 38.1544C249.62 38.5688 250.96 39.0572 253.05 39.6196C255.848 40.3596 257.821 41.3364 258.969 42.55C259.971 43.586 260.471 44.9624 260.471 46.6792C260.471 48.1 260.059 49.3728 259.234 50.4976C258.439 51.6224 257.35 52.5104 255.966 53.1616C254.582 53.7832 253.021 54.094 251.283 54.094Z" fill="#494D4B"/>
<path d="M267.33 53.65V35.668H262.913V30.2068H267.33V24.2128H273.338V30.2068H278.241V35.668H273.338V53.65H267.33Z" fill="#494D4B"/>
<path d="M282.287 53.65V30.2068H288.118L288.206 34.0696C288.972 32.7968 289.973 31.7608 291.21 30.9616C292.476 30.1328 293.801 29.7184 295.185 29.7184C295.715 29.7184 296.201 29.7628 296.643 29.8516C297.114 29.9108 297.511 29.9996 297.835 30.118L296.201 36.778C295.877 36.6004 295.465 36.4524 294.964 36.334C294.464 36.2156 293.963 36.1564 293.462 36.1564C292.019 36.1564 290.797 36.6596 289.796 37.666C288.824 38.6428 288.338 39.886 288.338 41.3956V53.65H282.287Z" fill="#494D4B"/>
<path d="M70.1687 36.7919C70.2137 42.6502 68.7234 48.417 65.8479 53.5128C65.4755 54.1747 65.081 54.8222 64.6645 55.4553C64.4586 55.777 64.1912 56.0545 63.8778 56.2716C63.5644 56.4887 63.2112 56.6411 62.8387 56.7199C62.4663 56.7988 62.082 56.8025 61.7081 56.731C61.3342 56.6594 60.9781 56.514 60.6606 56.3031C60.343 56.0921 60.0703 55.82 59.8582 55.5023C59.646 55.1846 59.4988 54.8278 59.4249 54.4525C59.351 54.0772 59.352 53.6909 59.4278 53.3159C59.5035 52.941 59.6526 52.5849 59.8663 52.2683C62.6108 48.0808 64.1752 43.224 64.3932 38.2142C64.6112 33.2044 63.4747 28.2288 61.1044 23.8164C58.7342 19.4039 55.2188 15.7195 50.9319 13.1547C46.645 10.5898 41.7469 9.2405 36.7581 9.25007C27.1688 9.26886 18.6666 14.3289 13.7246 21.8893C10.7703 26.3999 9.19821 31.6829 9.20333 37.0832C9.20844 42.4835 10.7905 47.7635 13.7534 52.2683C14.1734 52.9083 14.3234 53.6898 14.1702 54.4408C14.017 55.1919 13.5733 55.8511 12.9367 56.2733C12.3 56.6955 11.5225 56.8462 10.7753 56.6923C10.0281 56.5383 9.37234 56.0923 8.95228 55.4524C5.66701 50.441 3.77997 44.6353 3.48808 38.6409C3.19618 32.6466 4.51013 26.6833 7.2928 21.3734C10.0755 16.0635 14.2249 11.6016 19.3081 8.4533C24.3913 5.30497 30.2219 3.5856 36.1915 3.4746C36.4015 3.47027 36.61 3.46882 36.8185 3.46882C45.6347 3.45057 54.098 6.94917 60.3506 13.1967C66.6032 19.4442 70.1343 27.9302 70.1687 36.7919V36.7919Z" fill="#494D4B"/>
<path d="M16.6857 42.1696L21.8977 68.2315C22.2106 69.796 23.726 70.8093 25.2825 70.4948C26.839 70.1803 27.8471 68.6571 27.5342 67.0926L22.3222 41.0307C22.0093 39.4662 20.4939 38.4528 18.9374 38.7673C17.3809 39.0818 16.3728 40.6051 16.6857 42.1696Z" fill="#04D361"/>
<path d="M21.7983 67.6435L20.4769 67.9109C18.5134 68.3083 16.473 67.9366 14.7731 66.8719C13.0733 65.8072 11.8423 64.1299 11.332 62.1831C11.2931 62.0328 11.2572 61.8825 11.227 61.7293L9.3333 52.2726C8.92292 50.2198 9.34017 48.0872 10.4933 46.3435C11.6465 44.5998 13.4412 43.3877 15.4831 42.9735L16.8045 42.7061L19.1224 54.2802L21.7983 67.6435Z" fill="#494D4B"/>
<path d="M21.7984 67.6436L20.477 67.911C18.5135 68.3083 16.4731 67.9367 14.7732 66.872C13.0733 65.8073 11.8423 64.13 11.332 62.1832C14.1247 59.7515 16.7291 57.1096 19.1225 54.2802L21.7984 67.6436Z" fill="#494D4B"/>
<path d="M66.5294 50.1119L65.8479 53.5127C65.4755 54.1747 65.081 54.8222 64.6645 55.4552C64.4586 55.777 64.1912 56.0544 63.8777 56.2715C63.5643 56.4886 63.2112 56.641 62.8387 56.7199C62.4663 56.7987 62.082 56.8025 61.7081 56.7309C61.3342 56.6594 60.9781 56.5139 60.6606 56.303C60.343 56.0921 60.0703 55.8199 59.8581 55.5022C59.646 55.1846 59.4988 54.8277 59.4249 54.4524C59.351 54.0771 59.352 53.6908 59.4277 53.3159C59.5035 52.941 59.6526 52.5849 59.8663 52.2683C61.8156 49.3029 63.1764 45.9868 63.8737 42.5023C64.9559 43.4136 65.7738 44.6014 66.2412 45.9405C66.7085 47.2796 66.8081 48.7207 66.5294 50.1119Z" fill="#494D4B"/>
<path d="M63.1202 16.3349L58.9949 20.4815C56.4244 16.9876 53.0723 14.1505 49.2094 12.1994C45.3465 10.2483 41.0812 9.23795 36.758 9.25002C27.1688 9.26881 18.6666 14.3289 13.7246 21.8893L9.54034 17.6834C12.5572 13.3743 16.5431 9.8417 21.1741 7.37273C25.805 4.90377 30.9503 3.56818 36.1915 3.47455C36.4014 3.47022 36.6099 3.46877 36.8184 3.46877C41.888 3.45735 46.8931 4.61062 51.4515 6.84048C56.0099 9.07035 60.0011 12.3178 63.1202 16.3349V16.3349Z" fill="#8257E5"/>
<path d="M51.2509 41.0025L46.0388 67.0644C45.7259 68.6289 46.7341 70.1521 48.2905 70.4666C49.847 70.7811 51.3624 69.7678 51.6753 68.2033L56.8874 42.1414C57.2003 40.5769 56.1921 39.0536 54.6356 38.7391C53.0792 38.4246 51.5637 39.438 51.2509 41.0025Z" fill="#04D361"/>
<path d="M64.2863 52.2726L62.3926 61.7293C61.9815 63.7819 60.776 65.5864 59.0413 66.7457C57.3066 67.9049 55.1848 68.3241 53.1427 67.9109L51.8213 67.6435L53.1902 60.8115L56.8151 42.7061L58.1365 42.9735C60.1782 43.3882 61.973 44.5997 63.1274 46.3425C63.2863 46.5827 63.4318 46.8317 63.5631 47.0883C64.3835 48.6835 64.6386 50.5121 64.2863 52.2726V52.2726Z" fill="#494D4B"/>
<path d="M64.2863 52.2726L62.3926 61.7293C61.9815 63.782 60.776 65.5864 59.0413 66.7457C57.3066 67.905 55.1848 68.3241 53.1427 67.9109L51.8213 67.6435L53.1902 60.8115C57.1294 56.626 60.6072 52.0248 63.5631 47.0883C64.3835 48.6835 64.6386 50.5121 64.2863 52.2726V52.2726Z" fill="#494D4B"/>
</svg>
